<?xml version="1.0" standalone="no"?>
<!DOCTYPE svg PUBLIC "-//W3C//DTD SVG 20010904//EN"
 "http://www.w3.org/TR/2001/REC-SVG-20010904/DTD/svg10.dtd">
<svg version="1.0" xmlns="http://www.w3.org/2000/svg"
 width="32.000000pt" height="32.000000pt" viewBox="0 0 32.000000 32.000000"
 preserveAspectRatio="xMidYMid meet">

<g transform="translate(0.000000,32.000000) scale(0.100000,-0.100000)"
fill="#000000" stroke="none">
<path d="M0 160 l0 -160 160 0 160 0 0 160 0 160 -160 0 -160 0 0 -160z m274
94 c11 -29 7 -179 -6 -192 -13 -13 -142 -17 -196 -6 l-30 6 0 94 1 94 31 5
c28 4 69 8 162 13 21 1 34 -3 38 -14z"/>
<path d="M111 188 c-6 -35 -14 -75 -17 -91 -5 -26 -4 -27 39 -27 58 0 81 21
74 67 -3 18 -2 33 2 33 16 0 19 39 4 59 -10 15 -25 21 -52 21 l-38 0 -12 -62z
m74 22 c7 -12 -12 -40 -26 -40 -5 0 -9 11 -9 25 0 25 23 35 35 15z m-10 -85
c0 -13 -8 -21 -24 -23 -19 -3 -22 0 -17 13 3 9 6 21 6 27 0 5 8 8 18 6 9 -2
17 -12 17 -23z"/>
</g>
</svg>
