<svg xmlns="http://www.w3.org/2000/svg" 
version="1.1" xmlns:xlink="http://www.w3.org/1999/xlink" 
xmlns:svgjs="http://svgjs.dev/svgjs" width="200" height="200" 
viewBox="0 0 1000 750"><rect width="1000" height="750" 
fill="#ffffff"></rect><g 
transform="matrix(0.6033057851239669,0,0,0.6033057851239669,198.46463279309017,83.23687385666477)"><svg
 viewBox="0 0 255 247" data-background-color="#dedede" 
 preserveAspectRatio="xMidYMid meet" height="968" width="1000" 
 xmlns="http://www.w3.org/2000/svg" 
 xmlns:xlink="http://www.w3.org/1999/xlink"><g 
 id="tight-bounds" transform="matrix(1,0,0,1,-0.04952952970234037,
 -0.09997365579206985)"><svg viewBox="0 0 255.09920411642557 
 247.2" height="247.2" width="255.09920411642557"><g><svg 
 viewBox="0 0 255.09920411642557 247.2" height="247.2" 
 width="255.09920411642557"><g><svg 
 viewBox="0 0 255.09920411642557 247.2" height="247.2" 
 width="255.09920411642557"><g id="textblocktransform">
 <svg viewBox="0 0 255.09920411642557 247.2" height="247.2" 
 width="255.09920411642557" id="textblock"><g><svg 
 viewBox="0 0 255.09920411642557 247.2" height="247.2" 
 width="255.09920411642557"><path d="M254.502 53.02C253.303 
 27.36 249.885 20.227 249.885 20.227 239.391-6.202 226.295-0.506 
 214.53 3.292 193.759 3.446 173.071 9.091 152.348 12.119 108.85 
 12.581 64.98 4.986 21.698 23.717 17.633 29.464-4.218 24.846 0.723 
 56.304 2.018 69.39 6.744 83.913 6.6 95.922 7.247 98.026 8.147 93.202 
 8.53 96.23 9.874 104.39 12.068 100.541 13.867 105.365 11.361 
 118.246 13.16 128.971 14.875 140.21 11.852 143.135 7.979 141.749 
 6.24 151.449 6.06 158.479 5.089 157.145 4.021 156.837 3.242 156.632 
 1.671 157.402 1.934 159.608 2.834 167.152-1.028 171.514 1.395 
 178.904-0.272 186.91 2.546 193.838 2.162 202.511 2.114 204.255 
 2.378 205.744 2.798 206.154 4.657 208.361 1.946 212.672 2.234 
 217.342 21.303 249.262 41.99 227.195 61.526 241.872 66.599 
 231.608 62.786 245.516 64.812 243.36 66.396 240.846 67.547 
 251.263 69.334 245.362 69.61 243.668 69.19 239.665 70.173 
 240.435 70.689 240.846 71.145 240.743 71.217 238.382 71.325 
 234.841 70.377 237.048 70.125 235.201 72.848 225.861 72.176 248.081 74.73 247.158 74.611 244.438 73.867 240.538 75.39 241.051 76.901 237.151 76.949 233.918 78.292 242.693 78.34 244.592 78.58 245.926 78.964 246.85 83.161 237.305 87.335 250.237 91.736 245.926 94.435 241.205 97.025 248.492 99.759 246.696 100.719 245.259 101.69 
 242.693 102.614 247.004 113.923 247.928 125.976 244.079 136.697 247.158 165.348 241.41 195.965 249.518 226.175 241.923 233.299 238.998 240.698 234.841 247.642 231.506 247.642 231.506 253.267 222.371 253.267 181.316S254.466 145.393 254.646 112.703C254.826 80.013 255.665 78.679 254.466 53.02Z" 
 opacity="1" fill="#000000" data-fill-palette-color="tertiary"></path><g transform="matrix(1,0,0,1,55.76832,26.230666666666668)"><svg width="143.56256411642556" viewBox="0.22 -35.55 26.204019933554818 35.55" height="194.73866666666666" 
 data-palette-color="#dedede"><path d="M12.16 0L0.22 0 6.37-35.55 16.21-35.52Q21.34-35.52 24.02-33.04 26.71-30.57 26.39-26L26.39-26Q25.98-20.58 20.73-18.14L20.73-18.14Q22.61-17.36 23.49-15.42 24.37-13.48 24.17-10.64L24.17-10.64Q23.8-5.69 20.64-2.84 17.48 0 12.16 0L12.16 0ZM14.92-15.43L9.91-15.45 8.25-5.96 12.35-5.91Q14.67-5.96 
 16-7.6 17.33-9.25 17.38-12.3L17.38-12.3Q17.38-15.23 14.92-15.43L14.92-15.43ZM12.35-29.57L10.79-20.68 14.11-20.63Q16.77-20.68 18.14-22.44 19.51-24.19 19.31-26.93L19.31-26.93Q19.07-29.39 16.38-29.54L16.38-29.54 12.35-29.57Z" 
 opacity="1" transform="matrix(1,0,0,1,0,0)" fill="#ffffff" class="wordmark-text-0" data-fill-palette-color="quaternary" id="text-0"></path></svg></g></svg></g></svg>
 </g></svg></g><g></g></svg></g><defs></defs></svg><rect width="255.09920411642557" height="247.2" fill="none" stroke="none" visibility="hidden"></rect></g></svg></g></svg>